<?xml version="1.0" standalone="no"?>
<!DOCTYPE svg PUBLIC "-//W3C//DTD SVG 1.1//EN" "http://www.w3.org/Graphics/SVG/1.1/DTD/svg11.dtd" >
<!--
2013-9-30: Created.
-->
<svg>
<metadata>
Created by iconfont
</metadata>
<defs>

<font id="iconfont" horiz-adv-x="1024" >
  <font-face
    font-family="iconfont"
    font-weight="500"
    font-stretch="normal"
    units-per-em="1024"
    ascent="896"
    descent="-128"
  />
    <missing-glyph />
    
    <glyph glyph-name="qiehuan" unicode="&#58890;" d="M512-64.00000001000001L128 319.99999999 896 319.99999999ZM512 832.00000001L128 448.00000001 896 448.00000001Z"  horiz-adv-x="1024" />

    
    <glyph glyph-name="bofang" unicode="&#58963;" d="M811.46758467 489.07578487C903.11135557 431.04465674 903.06176768 336.92620576 811.46758467 278.92647655999997L309.75390635-38.77118114999996C218.11013633-96.80231191999997 143.81818174-59.01631112999996 143.81818174 45.500363669999956L143.81818174 722.50189776C143.81818174 827.0749166 218.15972422 864.77317354 309.75390635 806.77344521L811.46758467 489.07578487 811.46758467 489.07578487Z"  horiz-adv-x="1024" />

    
    <glyph glyph-name="weixinzhifu" unicode="&#58932;" d="M404.966375 279.32887500000004c-53.845875-29.90025-61.83225 16.786125-61.83225 16.786125l-67.48425 156.855375c-25.966125 74.53575 22.473 33.607125 22.473 33.607125s41.563125-31.318875 73.107-50.403375c31.527-19.0845 67.462875-5.6025 67.462875-5.6025l441.18 202.831875C798.47675 734.285625 664.017875 800.25 511.794125 800.25 263.367125 800.25 62 624.7038749999999 62 408.14475c0-124.563375 66.67875-235.42875 170.53875-307.28475l-18.730125-107.242875c0 0-9.1305-31.30875 22.5135-16.78725 21.562875 9.901125 76.53375 45.381375 109.256625 66.974625 51.442875-17.856 107.488125-27.770625 166.240125-27.770625 248.40675 0 449.8155 175.546125 449.8155 392.10975 0 62.726625-16.97175 121.964625-47.035125 174.546C774.038375 498.451875 447.099875 302.68612499999995 404.966375 279.32887500000004L404.966375 279.32887500000004 404.966375 279.32887500000004zM404.966375 279.32887500000004"  horiz-adv-x="1024" />

    
    <glyph glyph-name="wodekefu" unicode="&#59019;" d="M908.976 448.53973333c-2.66026667 217.07093333-179.24906667 392.26986667-396.97173333 392.26986667s-394.3104-175.19893333-396.976-392.26986667c-36.44053333-29.13493333-59.83573333-73.86666667-59.83573334-124.128 0-87.7376 71.14346667-158.90026667 158.89066667-158.90026666 38.29226667 0 73.40586667 13.5744 100.83626667 36.11413333l-74.85866667 279.38453333c-8.47893333 1.38026667-17.11466667 2.29866667-25.97653333 2.29866667-5.83893333 0-11.57866667-0.3616-17.26186667-0.98773333 19.15093333 157.17333333 152.8192 279.04106667 315.1872 279.04106666 162.3456 0 296.03413333-121.86666667 315.17973333-279.04106666-5.65973333 0.62186667-11.41866667 0.98773333-17.25866666 0.98773333-8.85866667 0-17.51573333-0.92053333-26-2.29866667l-74.83626667-279.2544c21.17013333-17.38133333 46.91306667-29.39626667 75.15626667-33.99253333-37.48053333-40.26773333-85.14666667-70.94506667-139.06986667-87.5392l-6.57493333-6.5664c-16.82133333 30.92266667-49.1968 52.15146667-86.87146667 52.15146667-54.85546667 0-99.3088-44.45226667-99.3088-99.32586667 0-54.85973333 44.4512-99.31093333 99.3088-99.31093333 45.02506667 0 82.58026667 30.15466667 94.77546667 71.20853333 109.60213333 26.86826667 201.4176 99.0176 254.1568 195.71413333 41.168 28.71146667 68.15893333 76.3328 68.15893333 130.32-0.00213333 50.24853333-23.41866667 94.9952-59.84213333 124.12906667z"  horiz-adv-x="1024" />

    
    <glyph glyph-name="zhiwenjiesuo" unicode="&#59234;" d="M492.50764356 33.16128895999998c-9.89800664 3.5992749-18.89619433 0-23.39528819-10.79782558l-24.29510712-59.38803896c-5.39891279-11.69764453 3.5992749-24.29510713 13.49728154-24.29510713 10.79782559 0 16.19673838 3.5992749 19.79601328 11.69764453 8.9981877 18.89619433 17.09655644 38.69220761 24.29510712 58.48822002 3.5992749 10.79782559-0.89981895 20.69583222-9.89800664 24.29510712z m408.5177247 222.25523819c-0.89981895 10.79782559-8.9981877 17.99637539-19.79601328 17.09655644-9.89800664-0.89981895-16.19673838-8.09836875-16.1967375-18.89619433 0.89981895-29.69401992-0.89981895-58.4882209-1.79963789-88.18223994 0-13.49728154 6.29873174-20.69583222 17.09655645-21.59565117 10.79782559 0 18.89619433 7.19854981 18.89619433 20.69583222 0 19.79601328 2.69945596 40.49184463 1.79963789 59.38803897 0.89981895 12.5974626 0.89981895 21.59565029 0 31.49365781z m-602.87857998-113.37716601c-9.89800664 2.69945596-18.89619433-2.69945596-22.49547012-12.59746348-1.79963789-4.49909385-2.69945596-9.89800664-4.49909384-14.39710049-8.09836875-24.29510713-17.99637539-46.79057636-28.7942001-69.28604561-6.29873174-13.49728154 0.89981895-26.99456308 15.29691855-26.99456308 8.09836875-0.89981895 13.49728154 4.49909385 17.09655733 11.69764453 14.39710049 28.79420097 26.99456308 58.4882209 35.09293183 89.08205889 2.69945596 9.89800664-1.79963789 19.79601328-11.69764365 22.49546924z m297.84001465 41.39166357c-9.89800664 0.89981895-17.99637539-5.39891279-19.79601329-16.19673838-6.29873174-44.99093847-15.29691943-89.08205888-27.89438203-132.27335948-7.19854981-25.19492607-16.19673838-50.38985127-25.19492519-75.58477734-3.5992749-8.9981877-0.89981895-17.99637539 7.1985498-22.49547011s15.29691943-3.5992749 21.5956503 1.79963789c3.5992749 3.5992749 5.39891279 8.09836875 7.19855068 13.49728154 10.79782559 28.79420097 20.69583222 56.688583 27.89438203 86.38260292 10.79782559 40.49184463 19.79601328 81.88350908 25.19492608 125.07480968 0 9.89800664-6.29873174 18.89619433-16.19673838 19.79601328z m-481.40304522 314.93657197c3.5992749 11.69764453-1.79963789 21.59565029-12.5974626 25.1949252-9.89800664 2.69945596-18.89619433-3.5992749-22.49547011-14.3971005C67.79318135 467.77375781 62.39426856 426.38209424 62.39426856 381.39115575999995c0-12.5974626 0-28.79420097 1.79963789-44.09112041 3.5992749-32.39347588 9.89800664-63.88713281 20.69583134-95.38079062 2.69945596-7.19854981 7.19854981-11.69764453 15.29691944-11.69764366 15.29691943-0.89981895 22.49546924 10.79782559 17.99637539 26.99456309-25.19492607 80.08387119-26.99456308 160.16774238-3.59927491 241.15143252z m429.21355606-253.74889512c0.89981895 17.09655644-0.89981895 36.89256973-2.69945596 57.58840196-2.69945596 28.79420097-6.29873174 56.688583-12.59746348 84.58296416-2.69945596 10.79782559-11.69764453 16.19673838-20.69583134 14.39710048-10.79782559-2.69945596-16.19673838-11.69764453-13.49728155-22.49546923 7.19854981-34.19311377 11.69764453-69.2860456 13.49728155-105.27879639 2.69945596-61.18767685-1.79963789-122.37535371-17.09655645-181.76339356-2.69945596-11.69764453 1.79963789-21.59565029 11.69764365-24.29510625 10.79782559-2.69945596 19.79601328 3.5992749 23.39528819 16.1967375 12.5974626 52.18948916 18.89619433 104.37897832 17.99637539 161.06756133z m188.96194336 213.25704961c-3.5992749 9.89800664-12.5974626 14.39710049-22.49546924 11.69764453-9.89800664-2.69945596-14.39710049-11.69764453-11.69764453-22.49546924 14.39710049-53.98912617 19.79601328-109.77789112 23.39528818-166.46647412 4.49909385-92.68133379-5.39891279-182.66321162-28.79420097-272.64508945-2.69945596-11.69764453 1.79963789-22.49546924 11.69764453-24.29510625 11.69764453-2.69945596 20.69583222 2.69945596 23.39528818 15.29691855 19.79601328 77.38441435 31.49365693 156.56846748 30.59383799 239.35179463 0.89981895 50.38985127-3.5992749 103.47915937-11.69764366 155.66864854-3.5992749 22.49546924-7.19854981 44.09112041-14.39710048 63.88713281zM140.67850185 566.75382334c17.09655644 35.09293271 39.59202656 67.48640859 66.58658966 96.28060869C287.34896269 748.51721602 385.42920928 793.5081553699999 503.30546914 797.10743027c13.49728154 0 21.59565029 7.19854981 21.59565029 18.89619434s-8.09836875 17.99637539-22.49546923 17.99637539c-73.78513945-1.79963789-143.97100401-19.79601328-208.75795577-55.78876406-80.98369013-44.99093847-142.17136699-109.77789112-184.46284951-192.56121826-1.79963789-4.49909385-3.5992749-8.09836875-3.5992749-12.5974626-0.89981895-7.19854981 2.69945596-12.5974626 8.99818769-16.19673838 9.89800664-5.39891279 20.69583222-1.79963789 26.09474414 9.89800664z m248.34998233-215.95650644c-7.19854981 43.19130146-1.79963789 81.88350908 27.89438204 116.07662196 1.79963789 2.69945596 3.5992749 5.39891279 3.59927578 8.09836963 0.89981895 8.9981877-0.89981895 16.19673838-9.89800664 19.79601241-8.9981877 4.49909385-16.19673838 1.79963789-22.49547013-5.39891192-32.39347588-37.79238867-44.09112041-81.88350908-36.89256973-131.3735414 6.29873174-38.69220761 9.89800664-76.48459628 10.79782559-113.37716602 0-38.69220761-2.69945596-75.58477734-10.79782559-110.67771005-8.9981877-43.19130146-25.19492607-83.68314609-44.99093847-123.27517178-2.69945596-4.49909385-5.39891279-9.89800664-4.49909385-15.29691944 1.79963789-8.09836875 5.39891279-13.49728154 13.49728154-15.29691943 9.89800664-1.79963789 16.19673838 1.79963789 21.5956503 10.79782558 27.89438203 53.98912617 47.69039531 110.67770918 55.78876406 171.86538604 8.09836875 62.98731474 7.19854981 125.97462862-3.5992749 188.06212442zM179.37070948 300.40746563000005c-6.29873174 40.49184463-11.69764453 80.08387119-6.29873175 121.47553476 5.39891279 51.28967021 22.49546924 98.98006553 49.49003321 143.07118506 24.29510713 39.59202656 55.78876406 71.98550244 93.58115273 98.98006553 8.9981877 6.29873174 11.69764453 14.39710049 8.99818769 22.49546923-4.49909385 12.5974626-17.09655644 15.29691943-29.69401992 7.19855069-28.79420097-19.79601328-53.98912617-43.19130146-75.58477734-70.18586455-53.98912617-66.58658964-81.88350908-143.07118506-84.58296504-229.45378799-1.79963789-44.09112041 9.89800664-87.28242099 12.59746347-130.47372246 1.79963789-28.79420097 2.69945596-57.58840195-6.29873173-86.38260293-2.69945596-8.9981877-5.39891279-18.89619433-8.09836875-26.09474414 0-11.69764453 7.19854981-19.79601328 17.99637539-19.79601328s15.29691943 6.29873174 18.89619434 15.29691943c18.89619433 49.49003232 16.19673838 101.67952148 8.9981877 153.86901064z m774.74396689 158.36810448C918.12192471 638.73932578 812.84312832 757.51540372 638.27828545 815.10380567 619.38209112 821.4025374 599.58607783 825.90163125 578.89024648 827.70126826c-10.79782559 0.89981895-17.99637539-4.49909385-18.89619434-14.39710048-1.79963789-10.79782559 3.5992749-18.89619433 14.39710049-20.69583135 3.5992749-0.89981895 7.19854981-0.89981895 9.89800664-1.79963789 91.78151484-17.09655644 169.16593008-60.28785791 232.15324396-129.57390352 35.09293271-38.69220761 62.0874958-81.88350908 80.08387118-130.47372246 16.19673838-43.19130146 25.19492607-88.18223994 26.99456309-134.07299824 0.89981895-13.49728154 10.79782559-21.59565029 23.39528818-17.99637539 8.9981877 2.69945596 13.49728154 9.89800664 12.5974626 24.29510713 0 17.99637539-0.89981895 36.89256973-5.39891192 55.78876406zM716.56251875 609.9451248c-17.99637539 16.19673838-36.89256973 30.59383799-58.48822002 41.39166358-9.89800664 5.39891279-19.79601328 1.79963789-24.29510713-6.29873174-5.39891279-8.9981877-2.69945596-18.89619433 7.19854981-25.1949252 1.79963789-1.79963789 4.49909385-2.69945596 6.29873174-3.59927578 60.28785791-36.89256973 102.57934042-88.18223994 122.3753537-156.5684666 17.99637539-65.6867707 22.49546924-133.1731793 24.29510713-200.65958701 1.79963789-63.88713281-2.69945596-127.77426651-13.49728154-190.76158125-1.79963789-13.49728154 3.5992749-21.59565029 14.39710049-23.39528819 11.69764453-1.79963789 19.79601328 4.49909385 21.59565029 17.99637627 8.9981877 55.78876406 14.39710049 112.47734707 13.49728155 161.06756046 0 72.8853205-5.39891279 136.7724542-15.29691944 199.75976894-11.69764453 73.78513945-43.19130146 135.87263526-98.08024658 186.26248653zM567.19260195 536.1599853499999c-35.99275078 13.49728154-71.98550244 12.5974626-108.87807216 0.89981807-15.29691943-4.49909385-19.79601328-20.69583222-9.89800577-30.59383799 7.19854981-7.19854981 14.39710049-6.29873174 22.49546924-3.5992749C545.59695166 527.16179677 620.28191006 482.1708583 634.67901055 405.68626201c6.29873174-33.29329482 10.79782559-66.58658964 13.49728154-99.87988359 4.49909385-48.59021426 3.5992749-98.08024658-0.89981894-146.67046084-6.29873174-62.98731474-20.69583222-124.17499072-40.49184463-184.46284951-0.89981895-3.5992749-2.69945596-6.29873174-1.7996379-9.89800576 1.79963789-8.09836875 6.29873174-14.39710049 16.19673839-15.29691944 9.89800664-0.89981895 16.19673838 3.5992749 19.7960124 13.49728155 30.59383799 89.08205888 46.79057636 179.96375566 46.79057637 270.84545156 0 59.38803896-5.39891279 115.17680302-15.29691856 170.96556797-11.69764453 63.88713281-45.89075742 108.87807217-105.27879727 131.37354141zM317.94280068 426.38209424C338.63863291 528.06161572 445.71706719 599.1472992199999 548.29640762 578.45146787c46.79057636-9.89800664 85.48278398-32.39347588 116.07662197-68.38622754 2.69945596-3.5992749 6.29873174-7.19854981 9.89800664-9.89800664 7.19854981-3.5992749 16.19673838-0.89981895 21.59565117 5.39891279 6.29873174 8.09836875 5.39891279 16.19673838-1.79963789 26.09474503-41.39166357 50.38985127-94.48097167 80.08387119-160.16774238 85.4827831-83.68314609 7.19854981-152.9691917-22.49546924-206.05849981-88.18223994-41.39166357-51.28967021-56.688583-111.57752813-47.69039531-176.36447988 4.49909385-30.59383799 9.89800664-60.28785791 9.89800664-90.88169679 0-21.59565029 0-43.19130146-1.79963701-63.8871328-0.89981895-9.89800664 6.29873174-17.99637539 16.1967375-18.89619434 9.89800664-0.89981895 18.89619433 5.39891279 19.79601328 15.29691943 3.5992749 39.59202656 3.5992749 79.18405224-0.89981895 118.77607794-2.69945596 24.29510713-10.79782559 47.69039531-8.99818769 70.18586455 0 15.29691943 0.89981895 28.79420097 3.5992749 43.19130146z m562.38673536-117.87625987c9.89800664 0 17.09655644 8.9981877 17.09655732 19.79601329v6.29873174c-3.5992749 34.19311377-7.19854981 68.38622666-12.59746347 102.57934042-11.69764453 75.58477734-41.39166357 142.17136699-92.6813338 197.96013018-74.68495839 83.68314609-169.16593008 125.07480967-281.64327714 125.9746295-50.38985127 0-98.98006553-9.89800664-145.7706419-29.69401993-10.79782559-4.49909385-15.29691943-14.39710049-11.69764365-24.29510713 4.49909385-9.89800664 14.39710049-13.49728154 25.19492607-8.9981877 53.0893081 21.59565029 107.97825323 30.59383799 164.66683535 25.19492608 78.2842333-7.19854981 144.87082295-38.69220761 201.55940596-91.78151572 59.38803896-56.688583 93.58115273-125.97462862 105.27879727-207.85813682 4.49909385-32.39347588 8.09836875-64.78695176 10.79782559-97.18042851 2.69945596-10.79782559 9.89800664-17.99637539 19.7960124-17.9963754z m-420.21536836 58.48822091c-1.79963789 10.79782559-3.5992749 21.59565029 0 32.39347587 7.19854981 24.29510713 28.79420097 39.59202656 55.78876406 37.79238867 24.29510713-0.89981895 44.09112041-18.89619433 49.4900332-45.89075829 9.89800664-50.38985127 14.39710049-101.67952148 15.29691855-152.96919171 0-11.69764453 7.19854981-19.79601328 17.99637628-19.79601328s17.09655644 8.09836875 17.99637539 18.89619434v16.19673838h0.89981807c-1.79963789 23.39528818-2.69945596 46.79057636-5.39891192 70.18586455-2.69945596 23.39528818-6.29873174 46.79057636-9.89800664 70.18586455-7.19854981 49.49003232-50.38985127 84.58296504-101.67952236 79.18405224-46.79057636-5.39891279-84.58296504-52.18948916-77.38441436-98.08024657 3.5992749-27.89438203 8.09836875-55.78876406 10.79782559-83.68314611 5.39891279-78.2842333-1.79963789-154.76882959-26.99456396-229.45378798-9.89800664-27.89438203-20.69583222-54.88894512-34.1931129-80.98369014-3.5992749-6.29873174-3.5992749-13.49728154 0.89981895-19.79601328 4.49909385-6.29873174 9.89800664-8.09836875 17.09655645-7.1985498 8.09836875 0.89981895 12.5974626 6.29873174 16.1967375 13.49728154 62.0874958 126.87444756 76.48459628 260.04762598 53.0893081 399.51953701z m-211.4574126-49.49003321c-4.49909385 30.59383799-8.9981877 62.0874958-6.29873086 92.68133379 8.09836875 72.8853205 39.59202656 133.1731793 95.38078974 179.96375567 46.79057636 39.59202656 100.77970254 59.38803896 161.96738028 62.08749579 25.19492607 0.89981895 49.49003232-0.89981895 73.78513945-7.19855068 3.5992749-0.89981895 7.19854981-1.79963789 10.79782559-0.89981807 8.9981877 1.79963789 13.49728154 7.19854981 14.39710049 16.1967375 0.89981895 8.9981877-4.49909385 16.19673838-13.49728243 18.89619434-24.29510713 6.29873174-49.49003232 9.89800664-75.58477646 8.99818769-17.99637539 0.89981895-36.89256973-0.89981895-55.78876494-5.39891279-90.88169677-17.09655644-160.16774238-66.58658964-207.85813682-146.67045996-34.19311377-58.4882209-45.89075742-121.47553477-37.79238867-188.06212441 2.69945596-25.19492607 8.09836875-49.49003232 9.89800664-74.6849584 3.5992749-62.0874958-4.49909385-122.37535371-32.39347587-178.16411777-1.79963789-3.5992749-3.5992749-7.19854981-2.69945684-11.69764454 1.79963789-8.9981877 6.29873174-14.39710049 15.29691943-15.29691943 8.9981877-0.89981895 15.29691943 3.5992749 19.79601328 11.69764453 37.79238867 74.68495839 43.19130146 155.66864854 30.59383799 237.55215674z"  horiz-adv-x="1024" />

    
    <glyph glyph-name="icon-yxj-arrow-right" unicode="&#58897;" d="M314.89999999-66c-14.40000001 0-28.35 5.4-39.6 16.2-21.59999999 21.59999999-21.59999999 57.15 0 78.75l354.6 355.05-354.6 354.6c-21.59999999 21.59999999-21.59999999 57.15 0 78.75000001 21.59999999 21.59999999 57.15 21.59999999 78.75000001 0l394.2-394.20000001c21.59999999-21.59999999 21.59999999-57.15 0-78.75L354.49999999-49.799999999999955c-11.24999999-10.8-25.2-16.2-39.59999997-16.2z"  horiz-adv-x="1024" />

    
    <glyph glyph-name="guanbi" unicode="&#58946;" d="M512 834C263.6 834 62 632.4 62 384s201.6-450 450-450 450 201.6 450 450S760.4 834 512 834z m0-864C283.4-30 98 155.39999999999998 98 384S283.4 798 512 798s414-185.4 414-414-185.4-414-414-414zM657.8 529.8c-7.2 7.2-18 7.2-25.2 0L512 409.2l-120.6 120.6c-7.2 7.2-18 7.2-25.2 0s-7.2-18 0-25.2l120.6-120.6-120.6-120.6c-7.2-7.2-7.2-18 0-25.2 3.6-3.6 9-5.4 12.6-5.4s9 1.8 12.6 5.4l120.6 120.6 120.6-120.6c3.6-3.6 9-5.4 12.6-5.4s9 1.8 12.6 5.4c7.2 7.2 7.2 18 0 25.2L537.2 384l120.6 120.6c7.2 7.2 7.2 18 0 25.2z"  horiz-adv-x="1024" />

    
    <glyph glyph-name="collection" unicode="&#58891;" d="M277.98825606-65.95106512999996a79.30818721 79.30818721 0 0 0-62.43410567 26.99853222 122.61833262 122.61833262 0 0 0-21.37383808 93.93239179l5.62469414 200.80158135-112.49388281 143.99217071a120.36845479 120.36845479 0 0 0-20.24889874 105.18178096 105.74425019 105.74425019 0 0 0 74.80843242 64.12151338l187.86478448 56.2469414L423.10536523 777.75305859A104.05684161 104.05684161 0 0 0 511.97553301 834a112.49388281 112.49388281 0 0 0 87.18275918-51.74718662l112.49388281-168.74082422 168.7408251-46.12249248A112.49388281 112.49388281 0 0 0 958.57624883 496.51835068a112.49388281 112.49388281 0 0 0-23.0612458-100.11955605l-120.36845566-161.9911916 10.1244498-179.99021338c-4.49975567-110.24400586-74.80843242-120.36845479-96.18227051-120.36845478a143.42970058 143.42970058 0 0 0-43.87261377 7.31210273l-185.61490752 71.43361523-160.86625313-65.80892109a178.30280479 178.30280479 0 0 0-60.74669618-12.93679687zM511.97553301 777.75305859a56.24694141 56.24694141 0 0 1-40.49779834-29.24841005l-104.61931172-168.74082422-208.11368321-64.12151338a56.24694141 56.24694141 0 0 1-40.49779833-29.24841006 70.87114599 70.87114599 0 0 1 14.06173534-56.24694141l124.30574122-155.24155898-6.18716338-224.98776562a77.62077949 77.62077949 0 0 1 8.43704121-56.24694229c5.62469414-6.74963262 21.93630732-12.37432676 60.18422696 0l180.55268261 73.68349395 204.73886778-76.49584102a86.62028994 86.62028994 0 0 1 25.31112362-4.49975479c10.1244498 0 37.68545127 0 39.93532823 56.24694141l-11.24938828 199.11417276 6.18716338 8.99951133 125.99314892 168.74082421A64.68398261 64.68398261 0 0 1 905.70412373 479.64426826c-3.93728555 13.49926612-17.43655166 24.7486544-40.49779834 33.1856956L675.09166309 564.01468037 552.47333047 750.75452637A56.24694141 56.24694141 0 0 1 511.97553301 777.75305859z"  horiz-adv-x="1024" />

    
    <glyph glyph-name="collection-b" unicode="&#58893;" d="M962 496.5a90.5625 90.5625 0 0 1-63.5625 56.25l-189.5625 51.1875L581.1875 790.125A88.875 88.875 0 0 1 512 834a81.5625 81.5625 0 0 1-69.1875-45.5625l-105.75-168.75-141.75-43.3125L126.125 552.75a85.5 85.5 0 0 1-60.1875-50.0625 101.25 101.25 0 0 1 17.4375-85.5l123.75-156.9375-6.75-225a103.5 103.5 0 0 1 15.75-78.1875 56.25 56.25 0 0 1 43.875-18.5625 159.75 159.75 0 0 1 53.4375 11.8125l182.8125 74.25 207.5625-77.0625a124.3125 124.3125 0 0 1 37.6875-6.75c25.875 0 69.1875 11.8125 72.5625 91.125l-11.25 202.5 134.4375 180.5625A93.9375 93.9375 0 0 1 962 496.5"  horiz-adv-x="1025" />

    
    <glyph glyph-name="qiandai" unicode="&#58961;" d="M402.15166016 604.46923828h212.8086914c65.85205078 0 116.08505859 142.80644531 116.0850586 142.80644531 0 42.76757813-4.28203125 75.12363281-77.40527344 77.40351563-73.10039062 2.30273438-90.61347656-51.11542969-143.14921875-51.11542969-53.84707031 0-80.78027344 41.99414063-147.04189453 51.11542969-66.23876953 9.16435547-77.38242188-34.6359375-77.38242188-77.40351563 0-0.00087891 50.21103516-142.80644531 116.0850586-142.80644531z m224.42519531-44.14482422H402.15166016c-248.52128906 0-309.55429688-488.24121094-309.55429688-488.24121094 0-64.13115234 51.97675781-128.54267578 116.0859375-128.54267578h611.34082031c64.10917969 0 116.08417969 64.41152344 116.08417969 128.54267578 0 0-61.05322266 488.24121094-309.53144531 488.24121094z m25.47246094-375.23144531c14.97304687 0 27.10722656-12.15527344 27.10722656-27.12919922 0-14.97216797-12.13330078-27.12744141-27.10722656-27.1274414H542.00849609v-71.16591797c0-14.97216797-12.13330078-27.12919922-27.0852539-27.12919922-14.97304687 0-27.10546875 12.15703125-27.10546875 27.12919922v71.16503906h-110.75097657c-14.97216797 0-27.10546875 12.15527344-27.10546874 27.12832031 0 14.97392578 12.13330078 27.12919922 27.10546875 27.12919922h110.75097656V219.51269531000003h-110.75097657c-14.97216797 0-27.10546875 12.13417969-27.10546874 27.10722657s12.13330078 27.14941406 27.10546875 27.14941406h74.86611328l-76.65117188 136.22167968c-7.48652344 12.99462891-3.03398438 29.56025391 9.91757813 37.04589844 12.97177734 7.48740234 29.53740234 3.05507813 37.02392578-9.89560547l92.2921875-163.37109375h4.66699218l92.29218751 163.37109375c7.48564453 12.95068359 24.05126953 17.38388672 37.00283203 9.89472657 12.97265625-7.48476562 17.42695313-24.05039062 9.93955078-37.04414063l-76.65205078-136.22167969h70.284375c14.97304687 0 27.10722656-12.17636719 27.10722656-27.15029296 0-14.97216797-12.13330078-27.10722656-27.10722656-27.10722657H542.00849609v-34.41972656h110.04082032z"  horiz-adv-x="1024" />

    
    <glyph glyph-name="gengduo" unicode="&#58948;" d="M195.04128 480.65536a93.78304 93.78304 0 0 1-93.75744 0 93.73184 93.73184 0 0 1-46.83264-81.18784 93.76256 93.76256 0 0 1 46.83264-81.19808 93.80864 93.80864 0 0 1 93.75744 0 93.75744 93.75744 0 0 1 46.83264 81.19808 93.72672 93.72672 0 0 1-46.83264 81.18784zM551.17824 480.65536a93.62432 93.62432 0 0 1-93.6704 0 93.88032 93.88032 0 0 1-46.91968-81.18784c0-33.47968 17.92-64.4096 46.91968-81.19808a93.6448 93.6448 0 0 1 93.6704 0 93.9008 93.9008 0 0 1 46.91968 81.19808c0 33.47968-17.92512 64.4096-46.91968 81.18784zM907.40736 480.65536a93.78304 93.78304 0 0 1-93.75744 0 93.73184 93.73184 0 0 1-46.83264-81.18784 93.7472 93.7472 0 0 1 46.83264-81.19808 93.80864 93.80864 0 0 1 93.75744 0 93.75744 93.75744 0 0 1 46.83264 81.19808 93.72672 93.72672 0 0 1-46.83264 81.18784z"  horiz-adv-x="1024" />

    
    <glyph glyph-name="sousuo" unicode="&#58898;" d="M456.85333333 58.559999999999945c-210.02666667 0-380.8 170.77333333-380.8 380.8s170.77333333 380.8 380.8 380.8 380.8-170.77333333 380.8-380.8-170.77333333-380.8-380.8-380.8z m0 716.8c-185.28 0-336-150.72-336-336s150.72-336 336-336 336 150.72 336 336c0 185.17333333-150.72 336-336 336zM941.33333333-45.546666670000036c-8.74666667-8.74666667-22.93333333-8.74666667-31.68 0L751.36 112.85333333000005c-8.74666667 8.74666667-8.74666667 22.93333333 0 31.68s22.93333333 8.74666667 31.68 0L941.44-13.866666669999972c8.64-8.74666667 8.74666667-22.93333333-0.10666667-31.68z"  horiz-adv-x="1024" />

    
    <glyph glyph-name="bofang1" unicode="&#58924;" d="M1078.32106865 833.99997539H162.04437881A99.98196768 99.98196768 0 0 1 62.00000088 733.99304326V34.006932129999996a99.9944499 99.9944499 0 0 1 100.04437793-99.96948546h916.27668984a99.9944499 99.9944499 0 0 1 99.99444991 100.00693125V733.99304326A99.98196768 99.98196768 0 0 1 1078.32106865 833.99997539z m-672.23830693-732.5769876V666.5769875999999l489.42483662-282.57075879z m0 0"  horiz-adv-x="1270" />

    
    <glyph glyph-name="xiala" unicode="&#58884;" d="M568.74402823 141.46504065c-12.81316766-12.81316766-30.20246662-24.71110907-46.67653934-21.05020404-16.4740727-2.74567878-32.03291916 10.06748889-44.84608683 21.05020404L80.92843072 539.58846451c-20.13497775 20.13497775-20.13497775 53.08312319 0 73.2181009s53.08312319 20.13497775 73.21810094 0l368.8361835-378.90367235L892.73412489 612.8065654100001c20.13497775 20.13497775 53.08312319 20.13497775 73.21810092 0s20.13497775-53.08312319 0-73.2181009L568.74402823 141.46504065z"  horiz-adv-x="1024" />

    
    <glyph glyph-name="umidd17" unicode="&#58892;" d="M967.14752 215.97297813L967.14752 664.09358187c0 96.59278187-78.42474667 175.01752853-175.09034667 175.01752854L231.87000853 839.11111147c-96.59278187 0-175.01752853-78.38833812-175.01752853-175.01752855l0-560.22357333c0-96.59278187 78.35192853-175.01752853 175.01752854-175.01752852l560.22357333 0c86.10702187 0 157.72330667 62.2592 172.32327146 144.10638185-46.42133333 20.09770667-247.5804448 106.9693152-352.4016352 156.99512855-79.7718752-96.62919147-163.29386667-154.59214187-289.1958048-154.59214188s-209.93365332 77.55093333-199.84839146 172.43249814c6.66282667 62.29560853 49.37045333 164.16768 234.98296852 146.69141334 97.7942752-9.17504 142.57720853-27.45230187 222.31267521-53.77592854 20.64384 37.79242667 37.79242667 79.4806048 50.7904 123.75381334L277.38112 464.4636448l0 35.06176 174.98112 0 0 62.91456L238.93333333 562.4399648l1e-8 38.59342187 213.46531519 0L452.39864853 691.90997333c0 0 1.92967147 14.19946667 17.62190186 14.19946668l87.52696854-1e-8 0-105.0396448 227.5555552 0 0-38.59342187-227.5555552-1e-8 0-62.91455999 185.64892481 0c-17.07576854-69.46816-42.96248853-133.29294187-75.40280854-189.03495146C721.7152 291.01169813 967.14752 215.97297813 967.14752 215.97297813L967.14752 215.97297813 967.14752 215.97297813 967.14752 215.97297813zM308.87480852 135.4729248c-133.03808 0-154.08241813 83.99530667-147.01909332 119.09347519 6.99050667 34.9161248 45.51111147 80.53646187 119.49397333 80.53646188 84.97834667 0 161.10933333-21.8089248 252.4956448-66.22776854C469.65646187 185.24387520000005 390.79480853 135.4729248 308.87480852 135.4729248L308.87480852 135.4729248 308.87480852 135.4729248zM308.87480852 135.4729248"  horiz-adv-x="1024" />

    
    <glyph glyph-name="guanbi1" unicode="&#58883;" d="M945.46448941 12.436447130000033L576.72950267 381.17143387l368.73498674 368.89162588c17.75329787 17.75329787 17.75329787 46.661632 0 64.41492985s-46.661632 17.75329787-64.41492986 0L512.3145728 445.74300286l-368.89162587 368.73498674c-17.75329787 17.75329787-46.661632 17.75329787-64.41492986 0s-17.75329787-46.661632 0-64.41492985l368.89162586-368.89162588-368.89162586-368.73498674c-17.75329787-17.75329787-17.75329787-46.661632 0-64.41492985s46.661632-17.75329787 64.41492986 0l368.89162587 368.89162587 368.89162587-368.89162587c17.75329787-17.75329787 46.661632-17.75329787 64.41492986 0 17.59665872 17.75329787 17.59665872 46.661632-0.15793367 64.41492985z"  horiz-adv-x="1024" />

    
    <glyph glyph-name="xiala-copy" unicode="&#59813;" d="M458.80247353 611.37652439c12.01234468 12.01234468 28.31481246 23.16666475 43.75925564 19.73456629 15.44444316 2.57407386 30.03086171-9.43827083 42.0432064-19.73456626L916.1295962 238.13581452000005c18.87654164-18.87654164 18.87654164-49.76542799 0-68.64196959s-49.76542799-18.87654164-68.64196963 0l-345.78392203 355.22219283L155.06175792 169.49384493000002c-18.87654164-18.87654164-49.76542799-18.87654164-68.64196962 0s-18.87654164 49.76542799 0 68.64196959L458.80247353 611.37652439z"  horiz-adv-x="1024" />

    
    <glyph glyph-name="xuanze" unicode="&#58921;" d="M512-66C263.88476562-66 62 135.88476562000005 62 384S263.88476562 834 512 834s450-201.88476563 450-450-201.88476563-450-450-450z m0 860.88867188C285.41796875 794.88867188 101.11132812 610.58203125 101.11132812 384S285.41796875-26.888671879999947 512-26.888671879999947 922.88867188 157.41796875 922.88867188 384 738.58203125 794.88867188 512 794.88867188zM424.54882812 187.828125c-13.0078125 0-25.22460938 5.00976563-34.36523437 14.23828125L243.84570312 348.40429687000005c-7.64648438 7.64648438-7.64648438 20.0390625 1e-8 27.68554688s20.0390625 7.64648438 27.68554687 0L417.95703125 229.6640625c2.37304688-2.37304688 5.18554688-2.72460938 6.6796875-2.72460938 1.49414063 0 4.30664063 0.3515625 6.6796875 2.72460938L752.55664063 550.9921875c7.64648438 7.64648438 20.0390625 7.64648438 27.68554687 0s7.64648438-20.0390625 0-27.68554688L458.9140625 202.06640625c-9.140625-9.140625-21.35742188-14.23828125-34.36523438-14.23828125z"  horiz-adv-x="1024" />

    
    <glyph glyph-name="shouye" unicode="&#59109;" d="M853.7 620.88a416.01 416.01 0 0 1-104.535 107.325L169.43 148.47000000000003l0.855-1.35c128.895-191.55 386.37-240.78 575.085-109.95C934.1 168 982.595 429.33 853.7 620.88zM213.38 66.76499999999999c-34.395 0-79.905 6.705-101.34 38.655-50.76 75.66 55.83 268.56 295.38 435.15 142.515 99.105 297.015 160.665 403.2 160.665 34.395 0 79.905-6.705 101.34-38.655 50.76-75.66-55.83-268.56-295.38-435.15-142.515-99.105-297.015-160.665-403.2-160.665zM810.635 678.735c23.685 0 65.895-3.735 82.65-28.695 38.745-57.75-52.68-239.43-289.545-404.145-138.945-96.63-288.525-156.645-390.36-156.645-23.685 0-65.91 3.735-82.665 28.695-38.745 57.75 52.68 239.43 289.545 404.145 138.945 96.63 288.525 156.645 390.375 156.645m-0.015 45c-107.37 0-263.625-58.71-416.055-164.7C163.355 398.265 28.49 189.55499999999995 93.35 92.88c22.095-32.94 64.53-48.63 120.03-48.63 107.37 0 263.625 58.71 416.055 164.7C860.645 369.735 995.51 578.4449999999999 930.65 675.12c-22.095 32.94-64.53 48.615-120.03 48.615zM807.725 679.635a422.595 422.595 0 0 1-218.46 116.535C362.675 840.48 145.82 693.225 104.87 467.265c-25.425-140.34 23.04-277.995 117.675-372.81l585.18 585.18zM438.215 633.27a22.5 22.5 0 0 0-16.17 38.145c8.205 8.49 33.975 22.8 114.405 23.34h0.15a22.5 22.5 0 0 0 0.15-45c-62.445-0.405-81.75-9.96-84.165-11.295a22.395 22.395 0 0 0-14.37-5.19z m16.125 6.795s-0.015 0 0 0c-0.015 0 0 0 0 0z m0.03 0.03l-0.015-0.015 0.015 0.015z m0.015 0.03l-0.015-0.03 0.015 0.03zM241.445 386.19c-10.635 0-20.1 7.575-22.11 18.42-0.96 5.19-21.78 128.265 123.465 236.25a22.5 22.5 0 1 0 26.85-36.12c-123-91.455-106.245-190.98-106.065-191.97a22.515 22.515 0 0 0-22.14-26.58z"  horiz-adv-x="1024" />

    
    <glyph glyph-name="shouye1" unicode="&#59110;" d="M511.824-32.03200000000004a408.224 408.224 0 0 0-247.104 83.296l-30.672 23.264 38.128 5.328c100.064 14 225.088 68.88 343.024 150.592 118.592 82.112 214.656 180.528 263.552 270.032l18.864 34.528 10.592-37.904c48.128-172.304-17.744-355.76-163.92-456.512a408.48 408.48 0 0 0-232.464-72.624z m-196.288 87.296a376.256 376.256 0 0 1 410.576 11.664c124.256 85.648 185.632 236.048 159.888 383.568-55.008-83.824-144.96-171.872-252.56-246.368-107.232-74.288-220.752-127.216-317.904-148.864zM225.92 44.384000000000015c-60 0-103.584 18.08-127.488 53.36-29.104 43.248-23.664 105.168 15.664 179.44C69.28 447.632 135.312 627.8879999999999 279.712 727.408a408.24 408.24 0 0 0 474.24-6.688c82.928 10.336 142.208-7.04 171.616-50.464 29.856-44.336 23.36-108.352-18.736-185.152-51.216-93.728-150.848-196.128-273.392-280.976-121.904-84.464-251.968-141.312-356.816-155.968a365.76 365.76 0 0 0-50.704-3.776zM512.176 768.016c-74.704 0-149.52-22.24-214.288-66.944-134.944-93.008-195.728-262.416-151.28-421.568l1.76-6.288-3.136-5.712c-35.456-64.672-42.672-118.608-20.288-151.856 22.496-33.232 74.784-45.952 147.232-35.808 100.064 14 225.088 68.88 343.024 150.592 118.592 82.112 214.656 180.528 263.552 270.032v0.016c35.456 64.672 42.672 118.608 20.288 151.856-22.512 33.232-74.8 45.952-147.232 35.808l-6.592-0.928-5.312 4.016a376.112 376.112 0 0 1-227.728 76.784z"  horiz-adv-x="1024" />

    
    <glyph glyph-name="kecheng" unicode="&#58881;" d="M669.50712889-50.36032l-314.5728 56.65223111c-96.41073778 17.33063111-161.07292445 110.39175111-143.74229333 206.65685333L297.69955556 693.69173333c17.33063111 96.41073778 110.39175111 161.07292445 206.65685333 143.74229333l314.5728-56.65223111c96.41073778-17.33063111 161.07292445-110.39175111 143.74229333-206.65685333l-86.50752-480.88860444c-17.18499555-96.26510222-110.24611555-160.92728889-206.65685333-143.59665778zM172.16170667 203.91935999999998l89.71150222 498.80177778c7.42741333 41.06922667 29.27274667 76.02176 59.56494223 100.63416888h-86.2162489c-92.91548445 0-168.93724445-76.02176-168.93724444-168.93724444v-412.8768c0-87.96387555 68.15744-160.63601778 154.37368889-168.20906667-38.88469333 37.86524445-58.83676445 93.64366222-48.49664 150.58716445zM408.95929458 565.36641991l6.65117582 36.97978027 369.51672605-66.453504-6.65117583-36.98123663zM375.99614294 382.16999822l6.65117582 36.97978026 258.57592889-46.50143288-6.65117583-36.98123662zM342.93395912 198.97212018000005l6.64971946 36.98123662 277.06581902-49.82774898-6.64971946-36.98123662z"  horiz-adv-x="1024" />

    
    <glyph glyph-name="kecheng1" unicode="&#58882;" d="M567.12533334 57.03679999999997H250.368c-97.0752 0-175.99146667 78.91626667-175.99146666 175.99146666V620.10026666c0 97.0752 78.91626667 175.99146667 175.99146666 175.99146667h316.75733334c97.0752 0 175.99146667-78.91626667 175.99146666-175.99146667v-387.072c-0.13653333-97.0752-79.0528-175.99146667-175.99146666-175.99146666zM250.368 760.86613333c-77.55093333 0-140.76586667-63.21493333-140.76586666-140.76586667v-387.072c0-77.55093333 63.21493333-140.76586667 140.76586666-140.76586666h316.75733334c77.55093333 0 140.76586667 63.21493333 140.76586666 140.76586666V620.10026666c0 77.55093333-63.21493333 140.76586667-140.76586666 140.76586667H250.368zM670.208-24.200533339999993l-320.03413333 57.61706667c-83.42186667 15.01866667-139.40053333 95.57333333-124.38186667 178.9952l85.6064 475.81866667c15.01866667 83.42186667 95.57333333 139.40053333 178.9952 124.38186666l320.03413334-57.61706666c83.42186667-15.01866667 139.40053333-95.57333333 124.38186666-178.9952l-85.6064-475.81866667c-15.01866667-83.42186667-95.57333333-139.40053333-178.9952-124.38186667zM694.23786667-43.58826667000005c-10.24 0-20.75306667 0.95573333-31.26613333 2.73066667l-311.7056 56.1152c-46.14826667 8.32853333-86.28906667 34.13333333-113.18613334 72.9088-26.89706667 38.63893333-37.13706667 85.33333333-28.80853333 131.4816l84.10453333 467.62666666C310.44266667 782.71146666 402.05653334 846.336 497.62986667 829.26933333l311.7056-56.1152c46.14826667-8.32853333 86.28906667-34.13333333 113.18613333-72.9088 26.89706667-38.63893333 37.13706667-85.33333333 28.80853334-131.4816l-84.10453334-467.62666667c-15.29173333-84.92373333-89.56586667-144.72533333-172.98773333-144.72533333zM466.36373334 796.91093333c-66.7648 0-126.29333333-47.9232-138.4448-115.9168l-84.10453334-467.62666667c-6.69013333-36.864 1.6384-74.1376 23.07413334-105.13066666s53.6576-51.74613333 90.5216-58.29973334l311.7056-56.1152c76.45866667-13.78986667 149.77706667 37.2736 163.4304 113.59573334L916.65066667 575.04426666c6.69013333 36.864-1.6384 74.1376-23.07413333 105.13066667s-53.6576 51.74613333-90.5216 58.29973333l-311.7056 56.1152c-8.32853333 1.50186667-16.65706667 2.32106667-24.9856 2.32106667zM413.37105067 555.3834666600001l6.23547733 34.66990934 346.28676267-62.27694934-6.23547733-34.668544zM382.46673067 383.64091733l6.23547733 34.66990933 242.41493334-43.59645866-6.23547734-34.668544zM351.48049067 211.87652265999998l6.23547733 34.668544 259.74920534-46.71351466-6.23547734-34.668544z"  horiz-adv-x="1024" />

    
    <glyph glyph-name="tuiguang" unicode="&#58885;" d="M972.84141143 478.95C954.95391143 576.6 858.87891143 620.475 777.54141143 612.375c-19.575-1.9125-39.375-6.75-58.725-14.0625-3.15 5.2875-6.525 10.575-10.2375 15.75-7.0875 9.9-14.625 18.9-22.6125 26.6625-46.125 45-110.025 73.35-171 75.9375-39.7125 1.6875-81.45-9.225-117.225-30.6-36.675-21.9375-66.9375-55.125-84.9375-92.7l-3.375 1.35c-62.775 23.9625-132.1875 16.7625-181.125-19.125-57.0375-41.625-79.5375-118.2375-58.6125-199.6875 26.775-105.4125 101.925-203.625 200.3625-262.575 68.4-40.95 147.0375-63 223.425-63 5.4 0 10.8 0.1125 16.2 0.3375 125.55 5.175 257.175 63.675 352.0125 156.2625 16.0875 15.75 31.6125 34.0875 46.0125 54.225 38.025 53.55 80.4375 134.8875 65.1375 217.8zM414.05391143 658.6125c30.4875 18.3375 65.8125 27.675 99.5625 26.2125 53.4375-2.25 109.575-27.1125 150.1875-66.825 6.6375-6.525 12.9375-13.95 18.9-22.3875 2.475-3.4875 4.8375-6.975 6.975-10.4625-9.45-4.95-18.675-10.575-27.675-16.7625-25.2-17.325-57.4875-29.025-101.475-36.7875-36.225-6.4125-89.55-10.4625-137.5875 6.4125-19.6875 6.8625-37.6875 17.2125-56.925 28.125-7.9875 4.6125-16.2 9.225-24.525 13.6125 15.1875 31.95 41.0625 60.1875 72.5625 78.8625z m467.775-379.125c-13.3875-18.675-27.675-35.4375-42.4125-49.8375-89.4375-87.525-213.3-142.5375-331.3125-147.4875-75.0375-3.0375-154.0125 17.55-221.9625 58.275C194.67891143 195.22500000000002 125.04141143 286.125 100.17891143 383.54999999999995c-17.6625 69.6375-0.3375 131.85 46.6875 166.275 24.3 17.775 55.125 27 87.4125 27 21.0375 0 42.75-3.9375 63.5625-12.0375 17.8875-6.8625 34.65-16.3125 52.3125-26.4375 19.575-11.1375 39.825-22.6125 62.2125-30.4875 54.5625-19.125 113.625-14.7375 153.5625-7.7625 48.7125 8.55 84.9375 21.825 114.075 41.85 31.95 21.825 66.825 35.2125 100.9125 38.7 67.275 6.75 146.475-28.575 160.9875-107.55 13.725-75.6-31.725-153.7875-60.075-193.6125z"  horiz-adv-x="1024" />

    
    <glyph glyph-name="tuiguang1" unicode="&#58886;" d="M71.12 420.52c-4.44 74.4 28.44 153.48 105.6 175.44 33.6 9.6 69.72 6.48 103.92-0.72 6.36-1.32 12.84-2.88 19.2-1.68 10.8 2.04 18.6 10.92 25.92 19.08 45.72 51.12 108 91.44 176.52 95.52 71.64 4.32 140.88-31.44 192.96-80.76 8.04-7.56 15.96-15.72 26.28-19.44 14.16-5.16 29.88-1.44 44.64 1.2 51.6 9 109.32 0.12 147.24-36.12 46.56-44.52 51.6-117.96 37.8-180.84-35.4-162.48-172.68-286.92-332.64-322.8-79.56-17.88-163.56-15.72-242.28 5.28-76.2 20.28-148.56 59.76-203.64 116.52C111.2 254.55999999999995 84.44 334.72 70.04 420.28c-1.56 9-2.88 18.12-4.2 27.24M615.32 169.12c-6.72 0-12.84 4.32-14.88 11.04-2.52 8.16 2.16 16.8 10.44 19.32 41.28 12.36 79.92 34.32 111.84 63.36 6.36 5.76 16.2 5.28 21.96-0.96 5.76-6.36 5.28-16.08-0.96-21.96-35.28-32.16-78.12-56.52-123.84-70.2-1.56-0.36-3-0.6-4.56-0.6zM778.28 288.15999999999997c-3 0-6 0.84-8.64 2.64-7.08 4.8-9 14.4-4.2 21.6 18 26.76 30.48 55.8 37.08 86.4 9.72 44.88 1.92 84.72-20.88 106.56-6.24 5.88-6.36 15.72-0.48 21.96 6 6.24 15.72 6.36 21.96 0.48 31.2-29.88 42-79.32 29.76-135.6-7.56-34.44-21.48-67.08-41.64-97.08-3.12-4.56-8.04-6.96-12.96-6.96z"  horiz-adv-x="1024" />

    
    <glyph glyph-name="wode" unicode="&#58887;" d="M500.80426667 393.8304m-457.5232 0a457.5232 457.5232 0 1 1 915.0464 0 457.5232 457.5232 0 1 1-915.0464 0ZM612.89813333 235.04213332999996c0-61.8496-50.10773333-112.09386667-112.09386666-112.09386666s-112.09386667 50.10773333-112.09386667 112.09386666h224.18773333zM301.8752 327.74826667c-4.77866667 0-9.55733333 1.77493333-13.24373333 5.46133333-7.23626667 7.23626667-7.23626667 19.11466667 0 26.35093333l79.18933333 79.18933334-79.18933333 79.18933333c-7.23626667 7.23626667-7.23626667 19.11466667 0 26.35093333s19.11466667 7.23626667 26.35093333 0l92.43306667-92.43306666c7.23626667-7.23626667 7.23626667-19.11466667 0-26.35093334l-92.43306667-92.43306666c-3.54986667-3.41333333-8.32853333-5.3248-13.1072-5.3248zM695.0912 327.74826667c-4.77866667 0-9.55733333 1.77493333-13.24373333 5.46133333l-92.43306667 92.43306667c-7.23626667 7.23626667-7.23626667 19.11466667 0 26.35093333l92.43306667 92.43306667c7.23626667 7.23626667 19.11466667 7.23626667 26.35093333 0s7.23626667-19.11466667 0-26.35093334l-79.18933333-79.18933333 79.18933333-79.18933333c7.23626667-7.23626667 7.23626667-19.11466667 0-26.35093334-3.54986667-3.6864-8.32853333-5.59786667-13.1072-5.59786666z"  horiz-adv-x="1024" />

    
    <glyph glyph-name="wode1" unicode="&#58888;" d="M501.504 121.856c-67.584 0-122.624 55.04-122.624 122.624v17.536h245.12V244.48000000000002c0.128-67.712-54.912-122.624-122.496-122.624z m-85.76 104.96c8.192-39.936 43.52-70.016 85.76-70.016s77.696 30.08 85.76 70.016h-171.52zM501.504-53.24800000000005C255.36-53.24800000000005 55.04 147.072 55.04 393.216S255.36 839.68 501.504 839.68s446.464-200.32 446.464-446.464-200.192-446.464-446.464-446.464z m0 857.856c-226.944 0-411.52-184.576-411.52-411.52s184.576-411.52 411.52-411.52 411.52 184.576 411.52 411.52S728.448 804.608 501.504 804.608zM312.576 317.18399999999997c-4.48 0-8.96 1.664-12.416 5.12-6.784 6.784-6.784 17.92 0 24.704l74.24 74.24-74.24 74.24c-6.784 6.784-6.784 17.92 0 24.704 6.784 6.784 17.92 6.784 24.704 0l86.656-86.656c6.784-6.784 6.784-17.92 0-24.704l-86.656-86.656c-3.328-3.2-7.808-4.992-12.288-4.992zM681.088 317.18399999999997c-4.48 0-8.96 1.664-12.416 5.12l-86.656 86.656c-6.784 6.784-6.784 17.92 0 24.704l86.656 86.656c6.784 6.784 17.92 6.784 24.704 0 6.784-6.784 6.784-17.92 0-24.704l-74.24-74.24 74.24-74.24c6.784-6.784 6.784-17.92 0-24.704-3.328-3.456-7.808-5.248-12.288-5.248z"  horiz-adv-x="1024" />

    
    <glyph glyph-name="yaoqing-" unicode="&#58889;" d="M640.25 17.024999999999977c-73.0125 73.0125-77.625 188.325-13.95 266.7375-27.45 19.0125-57.15 33.3-89.8875 44.6625-3.15 1.575-4.725 1.575-7.875 3.15h1.575c17.325 9.45 34.65 20.475 50.2875 33.075 22.05 18.9 39.2625 40.95 53.4375 67.6125 18.9 36.225 26.775 75.4875 25.2 116.4375 0 12.6-1.575 25.2-4.725 36.225-9.45 42.4125-28.35 78.6375-58.1625 110.1375-12.6 15.75-28.35 26.775-43.9875 37.8C519.2 753 481.4 765.6 442.1375 768.75h-33.075c-12.6-1.575-25.2-3.15-36.225-6.3-40.8375-9.45-77.0625-28.35-106.9875-56.5875-20.475-18.9-36.225-39.375-47.1375-64.4625-17.325-36.225-25.2-73.9125-23.625-113.2875 0-11.025 1.575-22.05 3.15-33.075 7.875-42.4125 26.775-78.6375 56.5875-111.7125 18.9-22.05 42.4125-37.8 67.6125-51.8625 0 0 1.575 0 1.575-1.575-7.875-3.15-15.75-4.725-23.625-7.875l-23.625-9.45c-43.9875-20.475-81.7875-50.2875-114.8625-86.5125-17.325-20.475-31.5-40.95-43.9875-64.4625-15.75-28.35-26.775-58.1625-33.075-91.2375v-1.575c-3.15-15.75-6.3-31.5-6.3-47.1375 0-3.15-1.575-6.3-1.575-9.45V-17.625h609.525c-16.425 9-32.0625 20.5875-46.2375 34.65zM415.3625 436.875c-39.375 3.15-73.9125 18.9-91.2375 43.9875-4.725 7.875-3.15 17.325 4.725 22.05 7.875 4.725 17.325 3.15 22.05-4.725 11.025-17.325 36.225-28.35 67.6125-29.925 37.8-3.15 72.3375 9.45 91.2375 31.5 6.3 6.3 15.75 7.875 22.05 1.575 6.3-6.3 7.875-15.75 1.575-22.05-25.2-26.6625-64.4625-42.4125-106.9875-42.4125h-11.025zM659.825 279.7125c-67.1625-67.1625-67.1625-176.0625 0-243.1125 67.1625-67.1625 176.0625-67.1625 243.1125 0 67.1625 67.1625 67.1625 175.95 0 243.1125-67.1625 67.05-175.95 67.1625-243.1125 0z m205.0875-105.525c4.1625 0 8.2125-1.575 11.3625-4.725 6.3-6.3 6.3-16.5375 0-22.8375-3.0375-3.0375-7.0875-4.725-11.3625-4.725h-67.5v-67.5c0-4.1625-1.575-8.325-4.725-11.475-6.3-6.3-16.5375-6.3-22.8375 0-3.15 3.15-4.725 7.3125-4.725 11.3625v67.5h-67.5c-4.1625 0-8.2125 1.575-11.3625 4.725-6.3 6.3-6.3 16.5375 0 22.8375 3.15 3.15 7.3125 4.725 11.3625 4.725h67.5v67.5c0 4.275 1.6875 8.325 4.725 11.3625 6.3 6.3 16.5375 6.3 22.8375 0 3.15-3.15 4.725-7.3125 4.725-11.3625v-67.3875h67.5z m0 0"  horiz-adv-x="1024" />

    
    <glyph glyph-name="qiehuan-copy" unicode="&#59814;" d="M512-64.00000001000001L128 319.99999999 896 319.99999999ZM512 832.00000001L128 448.00000001 896 448.00000001Z"  horiz-adv-x="1024" />

    
    <glyph glyph-name="qiehuan-copy1" unicode="&#59815;" d="M512-64.00000001000001L128 319.99999999 896 319.99999999ZM512 832.00000001L128 448.00000001 896 448.00000001Z"  horiz-adv-x="1024" />

    


  </font>
</defs>
</svg>
